<svg aria-hidden="true" style="position: absolute; width: 0; height: 0; overflow: hidden;" version="1.1" xmlns="http://www.w3.org/2000/svg" xmlns:xlink="http://www.w3.org/1999/xlink">
<defs>
<symbol id="icon-bubbles4" viewBox="0 0 36 32">
<path d="M15 4c-1.583 0-3.112 0.248-4.543 0.738-1.341 0.459-2.535 1.107-3.547 1.926-1.876 1.518-2.91 3.463-2.91 5.474 0 1.125 0.315 2.217 0.935 3.247 0.646 1.073 1.622 2.056 2.821 2.842 0.951 0.624 1.592 1.623 1.761 2.748 0.028 0.187 0.051 0.375 0.068 0.564 0.085-0.079 0.169-0.16 0.254-0.244 0.754-0.751 1.771-1.166 2.823-1.166 0.167 0 0.335 0.011 0.503 0.032 0.605 0.077 1.223 0.116 1.836 0.116 1.583 0 3.112-0.248 4.543-0.738 1.341-0.459 2.535-1.107 3.547-1.926 1.876-1.518 2.91-3.463 2.91-5.474s-1.033-3.956-2.91-5.474c-1.012-0.819-2.206-1.467-3.547-1.926-1.431-0.49-2.96-0.738-4.543-0.738zM15 0v0c8.284 0 15 5.435 15 12.139s-6.716 12.139-15 12.139c-0.796 0-1.576-0.051-2.339-0.147-3.222 3.209-6.943 3.785-10.661 3.869v-0.785c2.008-0.98 3.625-2.765 3.625-4.804 0-0.285-0.022-0.564-0.063-0.837-3.392-2.225-5.562-5.625-5.562-9.434 0-6.704 6.716-12.139 15-12.139zM31.125 27.209c0 1.748 1.135 3.278 2.875 4.118v0.673c-3.223-0.072-6.181-0.566-8.973-3.316-0.661 0.083-1.337 0.126-2.027 0.126-2.983 0-5.732-0.805-7.925-2.157 4.521-0.016 8.789-1.464 12.026-4.084 1.631-1.32 2.919-2.87 3.825-4.605 0.961-1.84 1.449-3.799 1.449-5.825 0-0.326-0.014-0.651-0.039-0.974 2.268 1.873 3.664 4.426 3.664 7.24 0 3.265-1.88 6.179-4.82 8.086-0.036 0.234-0.055 0.474-0.055 0.718z"></path>
</symbol>
<symbol id="icon-users" viewBox="0 0 36 32">
<path d="M24 24.082v-1.649c2.203-1.241 4-4.337 4-7.432 0-4.971 0-9-6-9s-6 4.029-6 9c0 3.096 1.797 6.191 4 7.432v1.649c-6.784 0.555-12 3.888-12 7.918h28c0-4.030-5.216-7.364-12-7.918z"></path>
<path d="M10.225 24.854c1.728-1.13 3.877-1.989 6.243-2.513-0.47-0.556-0.897-1.176-1.265-1.844-0.95-1.726-1.453-3.627-1.453-5.497 0-2.689 0-5.228 0.956-7.305 0.928-2.016 2.598-3.265 4.976-3.734-0.529-2.39-1.936-3.961-5.682-3.961-6 0-6 4.029-6 9 0 3.096 1.797 6.191 4 7.432v1.649c-6.784 0.555-12 3.888-12 7.918h8.719c0.454-0.403 0.956-0.787 1.506-1.146z"></path>
</symbol>
<symbol id="icon-user-plus" viewBox="0 0 32 32">
<path d="M12 23c0-4.726 2.996-8.765 7.189-10.319 0.509-1.142 0.811-2.411 0.811-3.681 0-4.971 0-9-6-9s-6 4.029-6 9c0 3.096 1.797 6.191 4 7.432v1.649c-6.784 0.555-12 3.888-12 7.918h12.416c-0.271-0.954-0.416-1.96-0.416-3z"></path>
<path d="M23 14c-4.971 0-9 4.029-9 9s4.029 9 9 9c4.971 0 9-4.029 9-9s-4.029-9-9-9zM28 24h-4v4h-2v-4h-4v-2h4v-4h2v4h4v2z"></path>
</symbol>
<symbol id="icon-user-minus" viewBox="0 0 32 32">
<path d="M12 23c0-4.726 2.996-8.765 7.189-10.319 0.509-1.142 0.811-2.411 0.811-3.681 0-4.971 0-9-6-9s-6 4.029-6 9c0 3.096 1.797 6.191 4 7.432v1.649c-6.784 0.555-12 3.888-12 7.918h12.416c-0.271-0.954-0.416-1.96-0.416-3z"></path>
<path d="M23 14c-4.971 0-9 4.029-9 9s4.029 9 9 9c4.971 0 9-4.029 9-9s-4.029-9-9-9zM28 24h-10v-2h10v2z"></path>
</symbol>
<symbol id="icon-user-check" viewBox="0 0 32 32">
<path d="M30 19l-9 9-3-3-2 2 5 5 11-11z"></path>
<path d="M14 24h10v-3.598c-2.101-1.225-4.885-2.066-8-2.321v-1.649c2.203-1.242 4-4.337 4-7.432 0-4.971 0-9-6-9s-6 4.029-6 9c0 3.096 1.797 6.191 4 7.432v1.649c-6.784 0.555-12 3.888-12 7.918h14v-2z"></path>
</symbol>
<symbol id="icon-hour-glass" viewBox="0 0 32 32">
<path d="M22.781 16c4.305-2.729 7.219-7.975 7.219-14 0-0.677-0.037-1.345-0.109-2h-27.783c-0.072 0.655-0.109 1.323-0.109 2 0 6.025 2.914 11.271 7.219 14-4.305 2.729-7.219 7.975-7.219 14 0 0.677 0.037 1.345 0.109 2h27.783c0.072-0.655 0.109-1.323 0.109-2 0-6.025-2.914-11.271-7.219-14zM5 30c0-5.841 2.505-10.794 7-12.428v-3.143c-4.495-1.634-7-6.587-7-12.428v0h22c0 5.841-2.505 10.794-7 12.428v3.143c4.495 1.634 7 6.587 7 12.428h-22zM19.363 20.925c-2.239-1.27-2.363-2.918-2.363-3.918v-2.007c0-1 0.119-2.654 2.367-3.927 1.203-0.699 2.244-1.761 3.033-3.073h-12.799c0.79 1.313 1.832 2.376 3.036 3.075 2.239 1.27 2.363 2.918 2.363 3.918v2.007c0 1-0.119 2.654-2.367 3.927-2.269 1.318-3.961 3.928-4.472 7.073h15.677c-0.511-3.147-2.204-5.758-4.475-7.075z"></path>
</symbol>
</defs>
</svg>
